<svg width="36" height="36" viewBox="0 0 36 36" fill="none" xmlns="http://www.w3.org/2000/svg">
<g filter="url(#filter0_d_6158_1412)">
<path d="M12.2333 0C7.71382 0 4 3.70873 4 8.23327V19.7667C4 24.2862 7.70873 28 12.2333 28H23.7667C28.2862 28 32 24.2913 32 19.7667V8.23455C32 3.71382 28.2913 0 23.7667 0H12.2333ZM12.2333 2.54545H23.7667C24.5139 2.54445 25.254 2.69088 25.9445 2.97637C26.6351 3.26185 27.2625 3.68077 27.7909 4.20914C28.3192 4.7375 28.7381 5.36492 29.0236 6.05545C29.3091 6.74598 29.4555 7.48606 29.4545 8.23327V19.7667C29.4555 20.5139 29.3091 21.254 29.0236 21.9445C28.7381 22.6351 28.3192 23.2625 27.7909 23.7909C27.2625 24.3192 26.6351 24.7381 25.9445 25.0236C25.254 25.3091 24.5139 25.4555 23.7667 25.4545H12.2345C11.4872 25.4557 10.747 25.3094 10.0563 25.024C9.36565 24.7386 8.73808 24.3197 8.20959 23.7913C7.68109 23.2629 7.26205 22.6355 6.97649 21.9448C6.69092 21.2542 6.54445 20.5141 6.54545 19.7667C6.54545 19.7667 6.54663 8.98187 6.54545 8.23455C6.54428 7.48722 6.69059 6.74701 6.976 6.05633C7.26141 5.36565 7.6803 4.73808 8.20868 4.20959C8.73706 3.68109 9.36454 3.26205 10.0552 2.97649C10.7458 2.69092 11.4859 2.54445 12.2333 2.54545ZM25.5167 5.33018C25.3651 5.32951 25.2149 5.35887 25.0747 5.41658C24.9345 5.47429 24.8071 5.5592 24.6999 5.66641C24.5927 5.77362 24.5077 5.901 24.45 6.04121C24.3923 6.18141 24.363 6.33166 24.3636 6.48327C24.3636 7.12473 24.8753 7.63636 25.5167 7.63636C25.6684 7.63721 25.8188 7.60796 25.9592 7.55033C26.0995 7.4927 26.2271 7.40781 26.3344 7.30059C26.4418 7.19336 26.5268 7.06592 26.5846 6.92563C26.6424 6.78535 26.6718 6.63499 26.6711 6.48327C26.6718 6.33155 26.6424 6.1812 26.5846 6.04091C26.5268 5.90062 26.4418 5.77318 26.3344 5.66596C26.2271 5.55873 26.0995 5.47385 25.9592 5.41621C25.8188 5.35858 25.6684 5.32934 25.5167 5.33018ZM18 6.36364C13.8 6.36364 10.3636 9.8 10.3636 14C10.3636 18.2 13.8 21.6364 18 21.6364C22.2 21.6364 25.6364 18.2 25.6364 14C25.6364 9.8 22.2 6.36364 18 6.36364ZM18 8.90909C20.8293 8.90909 23.0909 11.1707 23.0909 14C23.0909 16.8293 20.8293 19.0909 18 19.0909C15.1707 19.0909 12.9091 16.8293 12.9091 14C12.9091 11.1707 15.1707 8.90909 18 8.90909Z" fill="white"/>
</g>
<defs>
<filter id="filter0_d_6158_1412" x="0" y="0" width="36" height="36" filterUnits="userSpaceOnUse" color-interpolation-filters="sRGB">
<feFlood flood-opacity="0" result="BackgroundImageFix"/>
<feColorMatrix in="SourceAlpha" type="matrix" values="0 0 0 0 0 0 0 0 0 0 0 0 0 0 0 0 0 0 127 0" result="hardAlpha"/>
<feOffset dy="4"/>
<feGaussianBlur stdDeviation="2"/>
<feComposite in2="hardAlpha" operator="out"/>
<feColorMatrix type="matrix" values="0 0 0 0 0 0 0 0 0 0 0 0 0 0 0 0 0 0 0.25 0"/>
<feBlend mode="normal" in2="BackgroundImageFix" result="effect1_dropShadow_6158_1412"/>
<feBlend mode="normal" in="SourceGraphic" in2="effect1_dropShadow_6158_1412" result="shape"/>
</filter>
</defs>
</svg>
